<svg width="23" height="29" viewBox="0 0 23 29" fill="none" xmlns="http://www.w3.org/2000/svg">
<path d="M8.62778 18.1431L0.839966 7.61536H5.89528C6.14983 7.61536 6.38848 7.73805 6.53564 7.94385L11.6944 15.1351L17.0639 7.61536H21.5663C21.9243 7.61536 22.1311 8.02301 21.9203 8.30797L14.6377 18.1431L22.5488 28.7499H17.5531C17.2588 28.7499 16.9843 28.6114 16.8173 28.3739L11.5751 21.1114L6.07824 28.7499H1.2218C0.911562 28.7499 0.73258 28.3977 0.919519 28.1484L8.63573 18.1391L8.62778 18.1431Z" fill="#56B2A1"/>
<path d="M0.839844 0.352478H21.781C22.2026 0.352478 22.5486 0.692848 22.5486 1.11633V3.85116H1.53987C1.15406 3.85116 0.839844 3.5385 0.839844 3.15459V0.352478Z" fill="#56B2A1"/>
</svg>
